<svg fill="none" xmlns="http://www.w3.org/2000/svg" viewBox="0 0 80 80" width="80" height="80">
  <rect width="80" height="80" rx="16" fill="#78716c" />
  <path d="M18.36 25.4h5.92v12.72h.28c.507-1.227 1.24-2.24 2.2-3.04.96-.8 2.267-1.2 3.92-1.2 1.147 0 2.187.213 3.12.64.96.427 1.773 1.08 2.44 1.96.693.88 1.227 2 1.6 3.36.4 1.36.6 2.973.6 4.84s-.2 3.48-.6 4.84c-.373 1.36-.907 2.48-1.6 3.36-.667.88-1.48 1.533-2.44 1.96-.933.427-1.973.64-3.12.64-1.653 0-2.96-.387-3.92-1.16-.96-.8-1.693-1.827-2.2-3.08h-.28V55h-5.92V25.4Zm9.76 25.48c1.333 0 2.36-.4 3.08-1.2.72-.827 1.08-1.96 1.08-3.4v-3.2c0-1.44-.36-2.56-1.08-3.36-.72-.827-1.747-1.24-3.08-1.24-1.04 0-1.947.253-2.72.76-.747.507-1.12 1.307-1.12 2.4v6.08c0 1.093.373 1.893 1.12 2.4.773.507 1.68.76 2.72.76Zm14.584-.48h6.32V30h-6.32v-4.6h12.24v25h6.32V55h-18.56v-4.6Z" fill="#fff" />
</svg>
