<svg fill="none" xmlns="http://www.w3.org/2000/svg" viewBox="0 0 72 72" width="72" height="72">
  <rect width="72" height="72" rx="16" fill="url(#a)" />
  <g filter="url(#b)">
    <path d="M20.36 37.76c0-1.387.187-2.72.56-4a16.17 16.17 0 0 1 1.52-3.68l-5.04-4.96 5.76-5.76 4.96 4.96a16.17 16.17 0 0 1 3.68-1.52 14.777 14.777 0 0 1 4-.56c1.387 0 2.72.187 4 .56 1.28.32 2.507.853 3.68 1.6l4.96-5.04 5.84 5.6L49.24 30c.64 1.067 1.147 2.293 1.52 3.68.373 1.333.56 2.693.56 4.08 0 1.44-.187 2.8-.56 4.08a13.77 13.77 0 0 1-1.52 3.68l4.88 4.88-5.68 5.68-4.96-4.88a18.87 18.87 0 0 1-3.68 1.44c-1.28.373-2.613.56-4 .56-1.44 0-2.827-.16-4.16-.48a12.61 12.61 0 0 1-3.6-1.52L23.16 56l-5.68-5.68 4.96-4.88a16.037 16.037 0 0 1-1.6-3.68c-.32-1.28-.48-2.613-.48-4Zm8.08 0c0 1.333.32 2.56.96 3.68a8.287 8.287 0 0 0 2.72 2.72c1.12.64 2.347.96 3.68.96 1.387 0 2.64-.32 3.76-.96 1.173-.693 2.08-1.6 2.72-2.72a6.858 6.858 0 0 0 1.04-3.68c0-1.387-.347-2.64-1.04-3.76-.64-1.12-1.547-2-2.72-2.64-1.12-.693-2.373-1.04-3.76-1.04-1.333 0-2.56.347-3.68 1.04A7.584 7.584 0 0 0 29.4 34c-.64 1.12-.96 2.373-.96 3.76Z" fill="#A8A29E" />
  </g>
  <defs>
    <linearGradient id="a" x1="0" y1="0" x2="83.169" y2="16.842" gradientUnits="userSpaceOnUse">
      <stop stop-color="#78716c" />
      <stop offset="1" stop-color="#57534e" />
    </linearGradient>
    <filter id="b" x="11.4" y="15.36" width="52.88" height="52.72" filterUnits="userSpaceOnUse" color-interpolation-filters="sRGB">
      <feFlood flood-opacity="0" result="BackgroundImageFix" />
      <feColorMatrix in="SourceAlpha" values="0 0 0 0 0 0 0 0 0 0 0 0 0 0 0 0 0 0 127 0" result="hardAlpha" />
      <feOffset dx="2" dy="4" />
      <feGaussianBlur stdDeviation="4" />
      <feComposite in2="hardAlpha" operator="out" />
      <feColorMatrix values="0 0 0 0 0 0 0 0 0 0 0 0 0 0 0 0 0 0 0.15 0" />
      <feBlend in2="BackgroundImageFix" result="effect1_dropShadow_633_12" />
      <feBlend in="SourceGraphic" in2="effect1_dropShadow_633_12" result="shape" />
    </filter>
  </defs>
</svg>
