<svg fill="none" xmlns="http://www.w3.org/2000/svg" viewBox="0 0 207 72" width="207" height="72">
  <rect width="207" height="72" rx="16" fill="url(#a)" />
  <g filter="url(#b)">
    <path d="M25.888 37.408c0-1.11.15-2.176.448-3.2a12.938 12.938 0 0 1 1.216-2.944l-4.032-3.968 4.608-4.608 3.968 3.968a12.938 12.938 0 0 1 2.944-1.216 11.82 11.82 0 0 1 3.2-.448c1.11 0 2.176.15 3.2.448a9.963 9.963 0 0 1 2.944 1.28l3.968-4.032 4.672 4.48-4.032 4.032c.512.853.917 1.835 1.216 2.944.299 1.067.448 2.155.448 3.264 0 1.152-.15 2.24-.448 3.264a11.015 11.015 0 0 1-1.216 2.944l3.904 3.904-4.544 4.544-3.968-3.904c-.896.47-1.877.853-2.944 1.152a11.37 11.37 0 0 1-3.2.448c-1.152 0-2.261-.128-3.328-.384a10.086 10.086 0 0 1-2.88-1.216L28.128 52l-4.544-4.544 3.968-3.904a12.83 12.83 0 0 1-1.28-2.944 13.146 13.146 0 0 1-.384-3.2Zm6.464 0a5.83 5.83 0 0 0 .768 2.944 6.63 6.63 0 0 0 2.176 2.176 5.83 5.83 0 0 0 2.944.768c1.11 0 2.112-.256 3.008-.768.939-.555 1.664-1.28 2.176-2.176a5.486 5.486 0 0 0 .832-2.944c0-1.11-.277-2.112-.832-3.008a5.459 5.459 0 0 0-2.176-2.112c-.896-.555-1.899-.832-3.008-.832a5.486 5.486 0 0 0-2.944.832A6.068 6.068 0 0 0 33.12 34.4c-.512.896-.768 1.899-.768 3.008Z" fill="#A8A29E" />
  </g>
  <g filter="url(#c)">
    <path d="M69.36 21.4h5.92v12.72h.28c.507-1.227 1.24-2.24 2.2-3.04.96-.8 2.267-1.2 3.92-1.2 1.147 0 2.187.213 3.12.64.96.427 1.773 1.08 2.44 1.96.693.88 1.227 2 1.6 3.36.4 1.36.6 2.973.6 4.84s-.2 3.48-.6 4.84c-.373 1.36-.907 2.48-1.6 3.36-.667.88-1.48 1.533-2.44 1.96-.933.427-1.973.64-3.12.64-1.653 0-2.96-.387-3.92-1.16-.96-.8-1.693-1.827-2.2-3.08h-.28V51h-5.92V21.4Zm9.76 25.48c1.333 0 2.36-.4 3.08-1.2.72-.827 1.08-1.96 1.08-3.4v-3.2c0-1.44-.36-2.56-1.08-3.36-.72-.827-1.747-1.24-3.08-1.24-1.04 0-1.947.253-2.72.76-.747.507-1.12 1.307-1.12 2.4v6.08c0 1.093.373 1.893 1.12 2.4.773.507 1.68.76 2.72.76Zm14.584-.48h6.32V26h-6.32v-4.6h12.24v25h6.32V51h-18.56v-4.6Zm33.825 5.08c-3.467 0-6.094-.96-7.88-2.88-1.787-1.92-2.68-4.533-2.68-7.84 0-1.68.226-3.187.68-4.52.48-1.36 1.146-2.507 2-3.44a8.36 8.36 0 0 1 3.16-2.16c1.253-.507 2.653-.76 4.2-.76 1.546 0 2.933.253 4.16.76 1.226.48 2.266 1.173 3.12 2.08.853.907 1.506 2.013 1.96 3.32.48 1.28.72 2.72.72 4.32v1.76h-14.12v.36c0 1.333.413 2.413 1.24 3.24.826.8 2.04 1.2 3.64 1.2 1.226 0 2.28-.227 3.16-.68a7.752 7.752 0 0 0 2.28-1.88l3.2 3.48c-.8.987-1.92 1.84-3.36 2.56s-3.267 1.08-5.48 1.08Zm-.48-17.36c-1.28 0-2.307.4-3.08 1.2-.747.773-1.12 1.827-1.12 3.16v.32h8.32v-.32c0-1.36-.374-2.427-1.12-3.2-.72-.773-1.72-1.16-3-1.16ZM141.553 51V30.36h5.92v3.76h.24c.24-.587.533-1.133.88-1.64.347-.507.76-.947 1.24-1.32a5.62 5.62 0 0 1 1.72-.92c.667-.24 1.413-.36 2.24-.36.987 0 1.893.173 2.72.52.827.32 1.533.813 2.12 1.48.587.667 1.04 1.48 1.36 2.44.347.96.52 2.067.52 3.32V51h-5.92V38.44c0-2.667-1.16-4-3.48-4a4.8 4.8 0 0 0-1.36.2 3.126 3.126 0 0 0-1.16.56c-.347.24-.627.547-.84.92-.187.373-.28.813-.28 1.32V51h-5.92Zm37.105-3.76h-.28c-.534 1.253-1.28 2.28-2.24 3.08-.934.773-2.227 1.16-3.88 1.16-1.147 0-2.2-.213-3.16-.64-.934-.427-1.747-1.08-2.44-1.96-.667-.88-1.2-2-1.6-3.36-.374-1.36-.56-2.973-.56-4.84s.186-3.48.56-4.84c.4-1.36.933-2.48 1.6-3.36.693-.88 1.506-1.533 2.44-1.96.96-.427 2.013-.64 3.16-.64.826 0 1.56.107 2.2.32.64.213 1.2.507 1.68.88a5.2 5.2 0 0 1 1.28 1.36c.373.507.693 1.067.96 1.68h.28V21.4h5.92V51h-5.92v-3.76Zm-3.84-.36c1.04 0 1.933-.253 2.68-.76.773-.507 1.16-1.307 1.16-2.4v-6.08c0-1.093-.387-1.893-1.16-2.4-.747-.507-1.64-.76-2.68-.76-1.334 0-2.36.413-3.08 1.24-.72.8-1.08 1.92-1.08 3.36v3.2c0 1.44.36 2.573 1.08 3.4.72.8 1.746 1.2 3.08 1.2Z" fill="#fff" />
  </g>
  <defs>
    <filter id="b" x="17.52" y="18.688" width="45.504" height="45.376" filterUnits="userSpaceOnUse" color-interpolation-filters="sRGB">
      <feFlood flood-opacity="0" result="BackgroundImageFix" />
      <feColorMatrix in="SourceAlpha" values="0 0 0 0 0 0 0 0 0 0 0 0 0 0 0 0 0 0 127 0" result="hardAlpha" />
      <feOffset dx="2" dy="4" />
      <feGaussianBlur stdDeviation="4" />
      <feComposite in2="hardAlpha" operator="out" />
      <feColorMatrix values="0 0 0 0 0 0 0 0 0 0 0 0 0 0 0 0 0 0 0.15 0" />
      <feBlend in2="BackgroundImageFix" result="effect1_dropShadow_633_9" />
      <feBlend in="SourceGraphic" in2="effect1_dropShadow_633_9" result="shape" />
    </filter>
    <filter id="c" x="63.36" y="17.4" width="131.217" height="46.08" filterUnits="userSpaceOnUse" color-interpolation-filters="sRGB">
      <feFlood flood-opacity="0" result="BackgroundImageFix" />
      <feColorMatrix in="SourceAlpha" values="0 0 0 0 0 0 0 0 0 0 0 0 0 0 0 0 0 0 127 0" result="hardAlpha" />
      <feOffset dx="2" dy="4" />
      <feGaussianBlur stdDeviation="4" />
      <feComposite in2="hardAlpha" operator="out" />
      <feColorMatrix values="0 0 0 0 0 0 0 0 0 0 0 0 0 0 0 0 0 0 0.15 0" />
      <feBlend in2="BackgroundImageFix" result="effect1_dropShadow_633_9" />
      <feBlend in="SourceGraphic" in2="effect1_dropShadow_633_9" result="shape" />
    </filter>
    <linearGradient id="a" x1="0" y1="0" x2="185.906" y2="108.232" gradientUnits="userSpaceOnUse">
      <stop stop-color="#78716c" />
      <stop offset="1" stop-color="#57534e" />
    </linearGradient>
  </defs>
</svg>
